<?xml version="1.0" encoding="utf-8"?>
<!-- Generator: Adobe Illustrator 19.1.1, SVG Export Plug-In . SVG Version: 6.00 Build 0)  -->
<svg version="1.1" xmlns="http://www.w3.org/2000/svg" xmlns:xlink="http://www.w3.org/1999/xlink" x="0px" y="0px"
	 viewBox="0 0 1380.9 1259.6" style="enable-background:new 0 0 1380.9 1259.6;" xml:space="preserve">
<style type="text/css">
	.st0{display:none;}
	.st1{display:inline;fill:#9E151A;stroke:#000000;stroke-miterlimit:10;}
	.st2{filter:url(#Adobe_OpacityMaskFilter);}
	.st3{filter:url(#Adobe_OpacityMaskFilter_1_);}
	.st4{fill:#FFFFFF;}
	.st5{mask:url(#cercle_2_);fill:#FFFFFF;}
	.st6{fill:none;stroke:#FFFFFF;stroke-width:137.5477;stroke-miterlimit:10;}
</style>
<g id="Calque_2" class="st0">
	<rect x="-888.2" y="-568.6" class="st1" width="3157.3" height="2466.2"/>
</g>
<g id="Calque_5">
	<defs>
		<filter id="Adobe_OpacityMaskFilter" filterUnits="userSpaceOnUse" x="0" y="0" width="1380.9" height="1207.5">
			<feFlood  style="flood-color:white;flood-opacity:1" result="back"/>
			<feBlend  in="SourceGraphic" in2="back" mode="normal"/>
		</filter>
	</defs>
	<mask maskUnits="userSpaceOnUse" x="0" y="0" width="1380.9" height="1207.5" id="cercle_2_">
		<g class="st2">
			<defs>
				<filter id="Adobe_OpacityMaskFilter_1_" filterUnits="userSpaceOnUse" x="602.4" y="144.6" width="175" height="123.9">
					
						<feColorMatrix  type="matrix" values="-1 0 0 0 1  0 -1 0 0 1  0 0 -1 0 1  0 0 0 1 0" color-interpolation-filters="sRGB" result="source"/>
					<feFlood  style="flood-color:white;flood-opacity:1" result="back"/>
					<feBlend  in="source" in2="back" mode="normal"/>
				</filter>
			</defs>
			<mask maskUnits="userSpaceOnUse" x="602.4" y="144.6" width="175" height="123.9" id="cercle_2_">
				<g class="st3">
					<g>
						<path id="t2_1_" class="st4" d="M693.8,147.4c-1-1-2.4-1.6-3.9-1.6c-3,0-5.5,2.5-5.5,5.5c0,3,2.5,5.5,5.5,5.5
							c3,0,5.5-2.5,5.5-5.5C695.5,149.8,694.8,148.4,693.8,147.4z"/>
						<path id="t1_1_" class="st4" d="M666.2,230.3c-2.1-2.1-5.6-2.1-7.8,0s-2.1,5.6,0,7.8s5.6,2.1,7.8,0
							C668.4,235.9,668.4,232.4,666.2,230.3z"/>
					</g>
				</g>
			</mask>
			<path class="st5" d="M692.2,200.1c1,0.3,1.8,0.9,2.6,1.7c2.6,2.6,2.7,6.9,0.1,9.5c-0.8,0.8-1.7,1.4-2.7,1.7v42.4
				c0,0.1,0.6,0.3,1,0.5l18.5-18.5c-1.4-2.5-1-5.8,1.1-7.9c2.1-2.1,5.3-2.5,7.9-1.2l18.5-18.5c-1.4-2.5-1-5.8,1.2-7.9
				c2.1-2.1,5.2-2.7,7.9-1.2L768,181l-44-0.1c-0.3,1-0.9,2-1.7,2.8c-2.6,2.6-6.9,2.4-9.5-0.2c-0.8-0.8-1.4-2-1.7-3h-22.1l0.5-3.7
				l21.6,0.1c0.3-1,0.9-1.9,1.7-2.7c2.6-2.6,6.9-2.6,9.5,0c0.8,0.8,1.4,1.8,1.7,2.8l53.5,0.1l-26.4,26.4c1.4,2.5,1,5.8-1.2,7.9
				c-2.1,2.1-5.2,2.6-7.9,1.2L723.5,231c1.4,2.5,1,5.8-1.2,7.9c-2.1,2.1-5.2,2.7-7.9,1.2l-18.5,18.5c1.4,2.5,1,5.8-1.2,7.9
				c-2.6,2.6-6.9,2.6-9.5,0c-2.6-2.6-2.5-6.9,0.1-9.5c0.8-0.8,1.9-1.4,2.9-1.7v-42.4c-1-0.3-2.1-0.9-2.9-1.7
				c-2.6-2.6-2.6-6.9,0.1-9.5c0.8-0.8,1.8-1.4,2.8-1.7v-19.2l-19.4,0c-0.3,1-0.9,2-1.7,2.8c-2.6,2.6-6.9,2.6-9.5,0
				c-0.8-0.8-1.4-1.8-1.7-2.8l-44,0.1l19.6,19.6c2.5-1.4,5.8-1,7.9,1.2c2.1,2.1,2.5,5.4,1.2,7.9l18.5,18.5c2.5-1.4,5.8-1,7.9,1.2
				c2.6,2.6,2.6,6.9,0,9.5c-2.6,2.6-6.9,2.6-9.5,0c-2.1-2.1-2.5-5.4-1.2-7.9l-18.5-18.5c-2.5,1.4-5.8,1-7.9-1.2
				c-2.1-2.1-2.5-5.4-1.2-7.9L602.4,177l53.5-0.1c0.3-1,0.9-2,1.7-2.8c2.6-2.6,6.9-2.6,9.5,0c0.8,0.8,1.5,1.8,1.8,2.8l19.4,0v-19.2
				c-1-0.3-2.1-0.9-2.9-1.7c-1.2-1.2-2-2.9-2-4.7c0-3.7,3-6.7,6.7-6.7c3.7,0,6.7,3,6.7,6.7c0,3-1.8,5.6-4.6,6.4l0.1,19.3V200.1z"/>
		</g>
	</mask>
	<polyline id="cercle_1_" class="st6" points="0,1138.7 138.5,1138.7 690.5,141.2 1251.3,1138.7 1380.9,1138.7 	"/>
	<g>
		<path class="st4" d="M446.9,1104.4c-2.9-13.1-17.1-18.7-29.8-18.5c-9.8,0.2-20.6,3.5-26.4,11c-2.9,3.7-4,8.5-3.5,13.5
			c1,15,17.5,16.9,33.1,18.3c20,2.5,44.8,7.7,50.4,31c0.6,3.1,1,6.7,1,9.6c0,28.1-27.9,44.4-54.1,44.4c-22.5,0-49.8-13.3-52.5-39.4
			l-0.2-4l21.2-0.4l0.2,3.1v-0.8c1.5,13.5,17.9,20.6,31.4,20.6c15.6,0,32.7-8.7,32.7-23.7c0-1.5-0.2-3.1-0.6-5
			c-2.5-11-17.5-12.9-32.1-14.4c-22.7-2.3-49.4-7.3-51.6-37.7v0.2c-0.8-9.8,1.7-19.6,7.9-27.7c9.8-12.7,27.3-19.4,44.1-19.4
			c22.5,0,45.8,11.7,49.6,38.3L446.9,1104.4z"/>
		<path class="st4" d="M535.6,1066.7c31.4,0,47.3,24.4,47.3,48.7c0,24.4-15.8,48.5-47.3,48.5h-32.1v48.5h-21.2v-145.8H535.6z
			 M535.6,1143.2c17.7,0,26.4-13.7,26.4-27.5c0-14-8.7-27.7-26.4-27.7h-32.1v55.2H535.6z"/>
		<path class="st4" d="M659.5,1169.6h-52.3c-5.6,13.3-12.9,30.8-17.5,42.9h-22.7l58.5-147.7H641l58.5,147.7H677L659.5,1169.6z
			 M615.2,1149.8h36.2l-17.9-51.4L615.2,1149.8z"/>
		<path class="st4" d="M730.5,1138.6h24.6c17.7,0,26.4-12.7,26.4-25.4c0-12.5-8.7-25.2-26.4-25.2h-32.3v124.5H702v-145.8h53.1
			c31.7,0,47.5,23.3,47.5,46.4c0,20.6-12.7,40.2-37.7,44.6l46,54.8h-27.3l-53.1-63.9V1138.6z"/>
		<path class="st4" d="M848.2,1213.1V1088h-44.1v-21.2h109.1v21.2h-43.9v125.2H848.2z"/>
		<path class="st4" d="M943.2,1191.5h67.7v21h-88.9v-145.6h88.7v21h-67.5v41h66v21.2h-66V1191.5z"/>
	</g>
</g>
</svg>
